<svg width="24" height="24" viewBox="0 0 24 24" fill="none" xmlns="http://www.w3.org/2000/svg">
<path d="M12 18.7855L7.2 20.7997C6.4381 21.1168 5.71429 21.0564 5.02857 20.6184C4.34286 20.1805 4 19.5602 4 18.7575V4.23806C4 3.6226 4.224 3.0959 4.672 2.65799C5.12 2.22008 5.6579 2.00075 6.28571 2H17.7143C18.3429 2 18.8811 2.21933 19.3291 2.65799C19.7771 3.09665 20.0008 3.62334 20 4.23806V18.7575C20 19.5595 19.6571 20.1798 18.9714 20.6184C18.2857 21.0571 17.5619 21.1175 16.8 20.7997L12 18.7855ZM12 16.3236L17.7143 18.7295V4.23806H6.28571V18.7295L12 16.3236ZM12 4.23806H6.28571H17.7143H12Z" fill="#1B1B1B"/>
</svg>
