<svg width="21" height="21" viewBox="0 0 21 21" fill="none" xmlns="http://www.w3.org/2000/svg">
<path fill-rule="evenodd" clip-rule="evenodd" d="M18.5 1.00268e-07C19.0046 -0.000159579 19.4906 0.190406 19.8605 0.533497C20.2305 0.876588 20.4572 1.34684 20.495 1.85L20.5 2V16C20.5002 16.5046 20.3096 16.9906 19.9665 17.3605C19.6234 17.7305 19.1532 17.9572 18.65 17.995L18.5 18H2.5C1.99542 18.0002 1.50943 17.8096 1.13945 17.4665C0.769471 17.1234 0.542843 16.6532 0.505 16.15L0.5 16V2C0.49984 1.49542 0.690406 1.00943 1.0335 0.639452C1.37659 0.269471 1.84684 0.0428434 2.35 0.00500021L2.5 1.00268e-07H18.5ZM18.5 2H2.5V16H18.5V2ZM8.84 4.638L9.358 4.868L9.696 5.028L10.083 5.218L10.513 5.436L10.983 5.686L11.49 5.966L11.756 6.118L12.274 6.423L12.748 6.715L13.178 6.988L13.558 7.241L14.038 7.571L14.402 7.834L14.497 7.904C14.6513 8.01883 14.7767 8.16816 14.863 8.34005C14.9494 8.51194 14.9943 8.70164 14.9943 8.894C14.9943 9.08636 14.9494 9.27606 14.863 9.44795C14.7767 9.61984 14.6513 9.76917 14.497 9.884L14.174 10.119L13.734 10.427L13.378 10.666L12.973 10.929L12.52 11.212L12.021 11.512L11.487 11.821L10.978 12.103L10.507 12.353L10.077 12.573L9.691 12.761L9.069 13.049L8.839 13.149C8.66242 13.2251 8.47051 13.2589 8.27856 13.2476C8.08662 13.2364 7.89995 13.1805 7.73346 13.0843C7.56696 12.9881 7.42524 12.8544 7.3196 12.6937C7.21396 12.5331 7.14732 12.35 7.125 12.159L7.067 11.594L7.035 11.22L6.993 10.556L6.97 10.048L6.955 9.493L6.951 9.199L6.949 8.894C6.949 8.68733 6.951 8.48733 6.955 8.294L6.97 7.739L6.993 7.232L7.02 6.775L7.05 6.374L7.125 5.63C7.14719 5.43882 7.21376 5.25547 7.31939 5.09458C7.42502 4.93369 7.5668 4.79972 7.7334 4.70335C7.9 4.60698 8.08682 4.55089 8.27896 4.53954C8.47109 4.5282 8.66321 4.56191 8.84 4.638ZM9.451 7.139L9.015 6.921L8.986 7.408L8.964 7.959L8.951 8.569L8.949 8.894L8.951 9.219L8.964 9.828L8.974 10.111L9 10.631L9.015 10.866L9.449 10.648L9.936 10.392L10.471 10.098L10.755 9.936L11.306 9.61L11.8 9.304L12.236 9.024L12.432 8.894L12.025 8.624L11.559 8.33C11.2938 8.16584 11.0261 8.00582 10.756 7.85L10.473 7.689L9.939 7.395L9.451 7.139Z" fill="url(#paint0_linear_1253_8520)"/>
<defs>
<linearGradient id="paint0_linear_1253_8520" x1="8.00983" y1="18" x2="8.00983" y2="1.51043e-07" gradientUnits="userSpaceOnUse">
<stop stop-color="#F69000"/>
<stop offset="1" stop-color="#F8BA0C"/>
</linearGradient>
</defs>
</svg>
