<svg width="16" height="16" viewBox="0 0 16 16" fill="none" xmlns="http://www.w3.org/2000/svg">
<g clip-path="url(#clip0_503_6719)">
<path fill-rule="evenodd" clip-rule="evenodd" d="M8.00406 2.37695C7.73073 2.37695 7.50406 2.60362 7.50406 2.87695C7.50406 3.15029 7.73073 3.37695 8.00406 3.37695C8.27739 3.37695 8.50406 3.15029 8.50406 2.87695C8.50406 2.60362 8.27739 2.37695 8.00406 2.37695ZM6.50406 2.87695C6.50406 2.05029 7.17739 1.37695 8.00406 1.37695C8.83073 1.37695 9.50406 2.05029 9.50406 2.87695C9.50406 3.53029 9.08406 4.08362 8.50406 4.29029V5.39695C11.4907 5.65029 13.8374 8.15695 13.8374 11.2103V12.8836C13.8374 13.2436 13.8307 13.5103 13.7774 13.7436C13.6749 14.2122 13.4402 14.6415 13.1011 14.9806C12.7619 15.3198 12.3326 15.5545 11.8641 15.657C11.5974 15.717 11.2974 15.717 10.8507 15.717H5.15073C4.70406 15.717 4.40406 15.717 4.1374 15.657C3.66885 15.5545 3.23953 15.3198 2.90039 14.9806C2.56124 14.6415 2.32652 14.2122 2.22406 13.7436C2.17073 13.5103 2.16406 13.2503 2.16406 12.8836V11.2103C2.16406 8.15695 4.51073 5.65029 7.4974 5.39695V4.29029C6.9174 4.08362 6.4974 3.53029 6.4974 2.87695H6.50406ZM6.00406 8.71029C6.2774 8.71029 6.50406 8.93695 6.50406 9.21029V9.87695C6.50406 10.1503 6.2774 10.377 6.00406 10.377C5.73073 10.377 5.50406 10.1503 5.50406 9.87695V9.21029C5.50406 8.93695 5.73073 8.71029 6.00406 8.71029ZM10.0041 8.71029C10.2774 8.71029 10.5041 8.93695 10.5041 9.21029V9.87695C10.5041 10.1503 10.2774 10.377 10.0041 10.377C9.73073 10.377 9.50406 10.1503 9.50406 9.87695V9.21029C9.50406 8.93695 9.73073 8.71029 10.0041 8.71029ZM3.20406 13.5303C3.1974 13.4836 3.19073 13.437 3.18406 13.377H5.40406C5.94406 13.377 6.45073 13.1036 6.7574 12.657C6.87073 12.4836 7.06406 12.377 7.2774 12.377H8.74406C8.95073 12.377 9.14406 12.4836 9.26406 12.657C9.56406 13.1103 10.0707 13.377 10.6174 13.377H12.8374C12.8374 13.437 12.8241 13.4836 12.8174 13.5303C12.7555 13.8109 12.6147 14.0679 12.4115 14.271C12.2083 14.4742 11.9513 14.6151 11.6707 14.677C11.5241 14.7103 11.3374 14.7103 10.8041 14.7103H5.23073C4.6974 14.7103 4.51073 14.7103 4.36406 14.677C4.08349 14.6151 3.82647 14.4742 3.6233 14.271C3.42014 14.0679 3.2793 13.8109 3.2174 13.5303H3.20406ZM10.6041 12.377H12.8374V11.2103C12.8374 8.54362 10.6707 6.37695 8.00406 6.37695C5.3374 6.37695 3.17073 8.54362 3.17073 11.2103V12.377H5.40406C5.61073 12.377 5.80406 12.2703 5.92406 12.097C6.22406 11.6436 6.73073 11.377 7.2774 11.377H8.74406C9.28406 11.377 9.79073 11.6503 10.0974 12.097C10.2107 12.2703 10.4041 12.377 10.6174 12.377H10.6041Z" fill="#474747"/>
</g>
<defs>
<clipPath id="clip0_503_6719">
<rect width="16" height="16" fill="white"/>
</clipPath>
</defs>
</svg>
