<svg width="18" height="20" viewBox="0 0 18 20" fill="none" xmlns="http://www.w3.org/2000/svg">
<path d="M4 10C4 9.44772 4.44772 9 5 9C5.55228 9 6 9.44772 6 10C6 10.5523 5.55228 11 5 11C4.44772 11 4 10.5523 4 10ZM4 14C4 13.4477 4.44772 13 5 13C5.55228 13 6 13.4477 6 14C6 14.5523 5.55228 15 5 15C4.44772 15 4 14.5523 4 14ZM8 10C8 9.44772 8.44772 9 9 9C9.55228 9 10 9.44772 10 10C10 10.5523 9.55228 11 9 11C8.44772 11 8 10.5523 8 10ZM8 14C8 13.4477 8.44772 13 9 13C9.55228 13 10 13.4477 10 14C10 14.5523 9.55228 15 9 15C8.44772 15 8 14.5523 8 14ZM12 10C12 9.44772 12.4477 9 13 9C13.5523 9 14 9.44772 14 10C14 10.5523 13.5523 11 13 11C12.4477 11 12 10.5523 12 10ZM12 14C12 13.4477 12.4477 13 13 13C13.5523 13 14 13.4477 14 14C14 14.5523 13.5523 15 13 15C12.4477 15 12 14.5523 12 14Z" fill="url(#paint0_linear_1682_20831)"/>
<path d="M2 20H16C17.103 20 18 19.103 18 18V4C18 2.897 17.103 2 16 2H15C14.4477 2 14 1.55228 14 1C14 0.447715 13.5523 0 13 0C12.4477 0 12 0.447715 12 1C12 1.55228 11.5523 2 11 2H7C6.44772 2 6 1.55228 6 1C6 0.447715 5.55228 0 5 0C4.44772 0 4 0.447715 4 1C4 1.55228 3.55228 2 3 2H2C0.897 2 0 2.897 0 4V18C0 19.103 0.897 20 2 20ZM15.0001 6C15.5523 6 16 6.44766 16.0001 6.99992L16.0009 16.9999C16.001 17.5522 15.5532 18 15.0009 18H3C2.44771 18 2 17.5523 2 17V7C2 6.44771 2.44772 6 3 6H15.0001Z" fill="url(#paint1_linear_1682_20831)"/>
<defs>
<linearGradient id="paint0_linear_1682_20831" x1="7.75491" y1="15" x2="7.75491" y2="9" gradientUnits="userSpaceOnUse">
<stop stop-color="#F69000"/>
<stop offset="1" stop-color="#F8BA0C"/>
</linearGradient>
<linearGradient id="paint1_linear_1682_20831" x1="6.75885" y1="20" x2="6.75885" y2="1.67825e-07" gradientUnits="userSpaceOnUse">
<stop stop-color="#F69000"/>
<stop offset="1" stop-color="#F8BA0C"/>
</linearGradient>
</defs>
</svg>
