<svg width="21" height="21" viewBox="0 0 21 21" fill="none" xmlns="http://www.w3.org/2000/svg">
<path fill-rule="evenodd" clip-rule="evenodd" d="M7.97984 4.80266C8.12068 5.9885 7.92818 7.22516 7.49984 8.33516C7.02568 9.5635 6.39568 10.8935 6.31734 12.216C6.25151 13.3302 6.50401 14.6485 7.17734 15.551C7.91484 16.5393 9.12568 17.1668 10.4582 17.1668H11.7182C12.7634 17.1669 13.7705 16.7741 14.5397 16.0663C15.3088 15.3586 15.7839 14.3876 15.8707 13.346L16.1715 9.736C16.1811 9.6211 16.1667 9.50546 16.1293 9.39641C16.0919 9.28735 16.0322 9.18724 15.9541 9.10242C15.8761 9.01759 15.7812 8.9499 15.6756 8.90361C15.57 8.85732 15.456 8.83344 15.3407 8.8335H10.9023C10.5719 8.83328 10.2549 8.70249 10.0205 8.4696C9.78601 8.23671 9.65309 7.92061 9.65068 7.59016C9.64484 6.78183 9.69568 5.78433 9.32401 5.04016C8.99068 4.3735 8.67901 4.25016 8.40234 4.25016C8.15234 4.25016 7.95234 4.57766 7.97984 4.80266ZM8.40234 2.5835C9.53234 2.5835 10.314 3.2935 10.8148 4.29433C11.2498 5.16516 11.2907 6.211 11.3123 7.16683H15.3407C15.6866 7.16678 16.0287 7.23851 16.3455 7.37748C16.6622 7.51645 16.9467 7.71963 17.1809 7.97419C17.4151 8.22874 17.5939 8.52912 17.706 8.85634C17.8182 9.18355 17.8612 9.53047 17.8323 9.87516L17.5315 13.4843C17.4101 14.9426 16.745 16.3019 15.6682 17.2928C14.5914 18.2836 13.1815 18.8335 11.7182 18.8335H10.4582C9.66765 18.8358 8.88507 18.6758 8.1588 18.3637C7.43253 18.0515 6.778 17.5937 6.23568 17.0185C5.8547 17.1175 5.46263 17.1673 5.06901 17.1668C4.14568 17.1668 3.37901 16.6502 2.88234 15.8268C2.39901 15.0268 2.15234 13.9227 2.15234 12.5835C2.15234 11.2452 2.39984 10.141 2.88234 9.341C3.37901 8.51683 4.14568 8.00016 5.06901 8.00016C5.30318 8.00016 5.55151 8.04183 5.79984 8.11183C6.18151 7.11183 6.45318 6.081 6.32484 4.99933C6.18151 3.79516 7.16568 2.5835 8.40234 2.5835ZM5.23234 9.68683C4.82818 9.6035 4.51151 9.86683 4.30984 10.2018C4.03818 10.6518 3.81901 11.4218 3.81901 12.5835C3.81901 13.7452 4.03818 14.516 4.30901 14.966C4.56734 15.3927 4.84234 15.5002 5.06901 15.5002C5.12234 15.5002 5.17484 15.4985 5.22734 15.496C4.78068 14.4893 4.58901 13.2127 4.65401 12.1177C4.69318 11.4468 4.95484 10.5193 5.23234 9.68683Z" fill="#1B1B1B"/>
</svg>
