<svg width="18" height="19" viewBox="0 0 18 19" fill="none" xmlns="http://www.w3.org/2000/svg">
<path fill-rule="evenodd" clip-rule="evenodd" d="M8.25 3.20874C7.65326 3.20874 7.08097 3.44579 6.65901 3.86775C6.23705 4.28971 6 4.862 6 5.45874V6.20874H3.75C3.15326 6.20874 2.58097 6.44579 2.15901 6.86775C1.73705 7.28971 1.5 7.862 1.5 8.45874V14.4587C1.5 15.0555 1.73705 15.6278 2.15901 16.0497C2.58097 16.4717 3.15326 16.7087 3.75 16.7087H14.25C14.8467 16.7087 15.419 16.4717 15.841 16.0497C16.2629 15.6278 16.5 15.0555 16.5 14.4587V8.45874C16.5 7.862 16.2629 7.28971 15.841 6.86775C15.419 6.44579 14.8467 6.20874 14.25 6.20874H12V5.45874C12 4.862 11.7629 4.28971 11.341 3.86775C10.919 3.44579 10.3467 3.20874 9.75 3.20874H8.25ZM10.5 6.20874H7.5V5.45874C7.5 5.25983 7.57902 5.06906 7.71967 4.92841C7.86032 4.78776 8.05109 4.70874 8.25 4.70874H9.75C9.94891 4.70874 10.1397 4.78776 10.2803 4.92841C10.421 5.06906 10.5 5.25983 10.5 5.45874V6.20874Z" fill="url(#paint0_linear_1237_6970)"/>
<defs>
<linearGradient id="paint0_linear_1237_6970" x1="7.13237" y1="16.7087" x2="7.13237" y2="3.20874" gradientUnits="userSpaceOnUse">
<stop stop-color="#F69000"/>
<stop offset="1" stop-color="#F8BA0C"/>
</linearGradient>
</defs>
</svg>
