<svg width="24" height="24" viewBox="0 0 24 24" fill="none" xmlns="http://www.w3.org/2000/svg">
<path fill-rule="evenodd" clip-rule="evenodd" d="M2 12C2 6.477 6.477 2 12 2C17.523 2 22 6.477 22 12C22 17.523 17.523 22 12 22C10.5266 22.0008 9.07126 21.6761 7.738 21.049L3.201 21.979C3.03901 22.0121 2.87133 22.0045 2.71298 21.957C2.55463 21.9094 2.41055 21.8233 2.29364 21.7064C2.17672 21.5894 2.09062 21.4454 2.04304 21.287C1.99546 21.1287 1.98789 20.961 2.021 20.799L2.951 16.262C2.3239 14.9287 1.99915 13.4734 2 12ZM7.5 10.5C7.10218 10.5 6.72065 10.658 6.43934 10.9393C6.15804 11.2206 6 11.6022 6 12V12.01C6 12.4078 6.15804 12.7894 6.43934 13.0707C6.72065 13.352 7.10218 13.51 7.5 13.51H7.51C7.90783 13.51 8.28936 13.352 8.57066 13.0707C8.85197 12.7894 9.01 12.4078 9.01 12.01V12C9.01 11.6022 8.85197 11.2206 8.57066 10.9393C8.28936 10.658 7.90783 10.5 7.51 10.5H7.5ZM12 10.5C11.6022 10.5 11.2206 10.658 10.9393 10.9393C10.658 11.2206 10.5 11.6022 10.5 12V12.01C10.5 12.4078 10.658 12.7894 10.9393 13.0707C11.2206 13.352 11.6022 13.51 12 13.51H12.01C12.4078 13.51 12.7894 13.352 13.0707 13.0707C13.352 12.7894 13.51 12.4078 13.51 12.01V12C13.51 11.6022 13.352 11.2206 13.0707 10.9393C12.7894 10.658 12.4078 10.5 12.01 10.5H12ZM15 12C15 11.6022 15.158 11.2206 15.4393 10.9393C15.7206 10.658 16.1022 10.5 16.5 10.5H16.51C16.9078 10.5 17.2894 10.658 17.5707 10.9393C17.852 11.2206 18.01 11.6022 18.01 12V12.01C18.01 12.4078 17.852 12.7894 17.5707 13.0707C17.2894 13.352 16.9078 13.51 16.51 13.51H16.5C16.1022 13.51 15.7206 13.352 15.4393 13.0707C15.158 12.7894 15 12.4078 15 12.01V12Z" fill="url(#paint0_linear_503_6966)"/>
<defs>
<linearGradient id="paint0_linear_503_6966" x1="9.50983" y1="22" x2="9.50983" y2="2" gradientUnits="userSpaceOnUse">
<stop stop-color="#F69000"/>
<stop offset="1" stop-color="#F8BA0C"/>
</linearGradient>
</defs>
</svg>
