<svg width="19" height="18" viewBox="0 0 19 18" fill="none" xmlns="http://www.w3.org/2000/svg">
<path d="M9.5 2.25C10.3864 2.25 11.2642 2.42459 12.0831 2.76381C12.9021 3.10303 13.6462 3.60023 14.273 4.22703C14.8998 4.85382 15.397 5.59794 15.7362 6.41689C16.0754 7.23583 16.25 8.11358 16.25 9C16.25 9.88642 16.0754 10.7642 15.7362 11.5831C15.397 12.4021 14.8998 13.1462 14.273 13.773C13.6462 14.3998 12.9021 14.897 12.0831 15.2362C11.2642 15.5754 10.3864 15.75 9.5 15.75C7.70979 15.75 5.9929 15.0388 4.72703 13.773C3.46116 12.5071 2.75 10.7902 2.75 9C2.75 7.20979 3.46116 5.4929 4.72703 4.22703C5.9929 2.96116 7.70979 2.25 9.5 2.25ZM9.5 3.375C8.00816 3.375 6.57742 3.96763 5.52252 5.02252C4.46763 6.07742 3.875 7.50816 3.875 9C3.875 10.4918 4.46763 11.9226 5.52252 12.9775C6.57742 14.0324 8.00816 14.625 9.5 14.625C10.9918 14.625 12.4226 14.0324 13.4775 12.9775C14.5324 11.9226 15.125 10.4918 15.125 9C15.125 7.50816 14.5324 6.07742 13.4775 5.02252C12.4226 3.96763 10.9918 3.375 9.5 3.375ZM8.93975 5.625C9.07121 5.62522 9.19844 5.67148 9.29935 5.75574C9.40025 5.84 9.46846 5.95694 9.49213 6.08625L9.50225 6.1875V9H11.1875C11.3281 8.99974 11.4636 9.05212 11.5675 9.14682C11.6714 9.24152 11.736 9.37169 11.7487 9.51167C11.7614 9.65166 11.7213 9.79134 11.6361 9.90319C11.551 10.015 11.4271 10.091 11.2887 10.116L11.1875 10.125H8.93975C8.8081 10.125 8.6806 10.0789 8.57946 9.99462C8.47832 9.91034 8.40995 9.79325 8.38625 9.66375L8.37725 9.5625V6.1875C8.37725 6.03832 8.43651 5.89524 8.542 5.78975C8.64749 5.68426 8.79057 5.625 8.93975 5.625Z" fill="#1B1B1B"/>
</svg>
