<svg width="18" height="12" viewBox="0 0 18 12" fill="none" xmlns="http://www.w3.org/2000/svg">
<path d="M0.5 1C0.5 0.734784 0.611942 0.48043 0.811199 0.292893C1.01046 0.105357 1.28071 0 1.5625 0H16.4375C16.7193 0 16.9895 0.105357 17.1888 0.292893C17.3881 0.48043 17.5 0.734784 17.5 1C17.5 1.26522 17.3881 1.51957 17.1888 1.70711C16.9895 1.89464 16.7193 2 16.4375 2H1.5625C1.28071 2 1.01046 1.89464 0.811199 1.70711C0.611942 1.51957 0.5 1.26522 0.5 1ZM2.625 6C2.625 5.73478 2.73694 5.48043 2.9362 5.29289C3.13546 5.10536 3.40571 5 3.6875 5H14.3125C14.5943 5 14.8645 5.10536 15.0638 5.29289C15.2631 5.48043 15.375 5.73478 15.375 6C15.375 6.26522 15.2631 6.51957 15.0638 6.70711C14.8645 6.89464 14.5943 7 14.3125 7H3.6875C3.40571 7 3.13546 6.89464 2.9362 6.70711C2.73694 6.51957 2.625 6.26522 2.625 6ZM4.75 11C4.75 10.7348 4.86194 10.4804 5.0612 10.2929C5.26046 10.1054 5.53071 10 5.8125 10H12.1875C12.4693 10 12.7395 10.1054 12.9388 10.2929C13.1381 10.4804 13.25 10.7348 13.25 11C13.25 11.2652 13.1381 11.5196 12.9388 11.7071C12.7395 11.8946 12.4693 12 12.1875 12H5.8125C5.53071 12 5.26046 11.8946 5.0612 11.7071C4.86194 11.5196 4.75 11.2652 4.75 11Z" fill="black"/>
</svg>
