<svg width="20" height="20" viewBox="0 0 20 20" fill="none" xmlns="http://www.w3.org/2000/svg">
<mask id="path-1-inside-1_1303_15192" fill="white">
<path d="M10.5912 19.2581L10.5802 19.2601L10.5092 19.2951L10.4892 19.2991L10.4752 19.2951L10.4042 19.2601C10.3936 19.2567 10.3856 19.2584 10.3802 19.2651L10.3762 19.2751L10.3592 19.7031L10.3642 19.7231L10.3742 19.7361L10.4782 19.8101L10.4932 19.8141L10.5052 19.8101L10.6092 19.7361L10.6212 19.7201L10.6252 19.7031L10.6082 19.2761C10.6056 19.2654 10.5999 19.2594 10.5912 19.2581ZM10.8562 19.1451L10.8432 19.1471L10.6582 19.2401L10.6482 19.2501L10.6452 19.2611L10.6632 19.6911L10.6682 19.7031L10.6762 19.7101L10.8772 19.8031C10.8899 19.8064 10.8996 19.8037 10.9062 19.7951L10.9102 19.7811L10.8762 19.1671C10.8729 19.1551 10.8662 19.1477 10.8562 19.1451ZM10.1412 19.1471C10.1368 19.1444 10.1315 19.1435 10.1265 19.1446C10.1215 19.1458 10.1171 19.1488 10.1142 19.1531L10.1082 19.1671L10.0742 19.7811C10.0749 19.7931 10.0806 19.8011 10.0912 19.8051L10.1062 19.8031L10.3072 19.7101L10.3172 19.7021L10.3212 19.6911L10.3382 19.2611L10.3352 19.2491L10.3252 19.2391L10.1412 19.1471Z"/>
</mask>
<path d="M10.5912 19.2581L10.7433 18.2697L10.5774 18.2442L10.4123 18.2742L10.5912 19.2581ZM10.5802 19.2601L10.4013 18.2762L10.2636 18.3012L10.1381 18.3631L10.5802 19.2601ZM10.5092 19.2951L10.7053 20.2756L10.8338 20.2499L10.9514 20.192L10.5092 19.2951ZM10.4892 19.2991L10.2145 20.2606L10.4476 20.3272L10.6853 20.2796L10.4892 19.2991ZM10.4752 19.2951L10.0331 20.192L10.1139 20.2318L10.2005 20.2566L10.4752 19.2951ZM10.4042 19.2601L10.8464 18.3631L10.7767 18.3288L10.7025 18.3056L10.4042 19.2601ZM10.3802 19.2651L9.59935 18.6404L9.50677 18.7561L9.45173 18.8937L10.3802 19.2651ZM10.3762 19.2751L9.44773 18.9037L9.38384 19.0635L9.37701 19.2354L10.3762 19.2751ZM10.3592 19.7031L9.36001 19.6634L9.35432 19.8066L9.38908 19.9456L10.3592 19.7031ZM10.3642 19.7231L9.39408 19.9656L9.44459 20.1677L9.57159 20.3328L10.3642 19.7231ZM10.3742 19.7361L9.58159 20.3458L9.6727 20.4642L9.79446 20.5509L10.3742 19.7361ZM10.4782 19.8101L9.89846 20.6249L10.0458 20.7297L10.2206 20.7763L10.4782 19.8101ZM10.4932 19.8141L10.2356 20.7803L10.5251 20.8575L10.8094 20.7628L10.4932 19.8141ZM10.5052 19.8101L10.8214 20.7588L10.9632 20.7115L11.085 20.6249L10.5052 19.8101ZM10.6092 19.7361L11.189 20.5509L11.3158 20.4606L11.4092 20.336L10.6092 19.7361ZM10.6212 19.7201L11.4212 20.32L11.5467 20.1527L11.5946 19.9491L10.6212 19.7201ZM10.6252 19.7031L11.5986 19.9321L11.6298 19.7994L11.6244 19.6633L10.6252 19.7031ZM10.6082 19.2761L11.6074 19.2363L11.6033 19.1334L11.5784 19.0335L10.6082 19.2761ZM10.8562 19.1451L11.1139 18.1788L10.9114 18.1248L10.7042 18.1567L10.8562 19.1451ZM10.8432 19.1471L10.6912 18.1587L10.5352 18.1827L10.3941 18.2536L10.8432 19.1471ZM10.6582 19.2401L10.2091 18.3466L10.0651 18.419L9.95111 18.533L10.6582 19.2401ZM10.6482 19.2501L9.94111 18.543L9.75331 18.7308L9.68344 18.987L10.6482 19.2501ZM10.6452 19.2611L9.68044 18.998L9.6396 19.1478L9.64609 19.3029L10.6452 19.2611ZM10.6632 19.6911L9.66409 19.7329L9.67155 19.9111L9.74015 20.0757L10.6632 19.6911ZM10.6682 19.7031L9.74515 20.0877L9.83464 20.3025L10.0097 20.4557L10.6682 19.7031ZM10.6762 19.7101L10.0177 20.4627L10.1259 20.5573L10.2563 20.6176L10.6762 19.7101ZM10.8772 19.8031L10.4573 20.7106L10.5374 20.7477L10.6227 20.7701L10.8772 19.8031ZM10.9062 19.7951L11.6988 20.4048L11.8153 20.2534L11.8677 20.0698L10.9062 19.7951ZM10.9102 19.7811L11.8717 20.0558L11.918 19.8939L11.9087 19.7258L10.9102 19.7811ZM10.8762 19.1671L11.8747 19.1118L11.8687 19.0037L11.8397 18.8994L10.8762 19.1671ZM10.1412 19.1471L9.62293 20.0023L9.65767 20.0233L9.694 20.0415L10.1412 19.1471ZM10.1142 19.1531L9.28251 18.5979L9.23137 18.6745L9.19509 18.7591L10.1142 19.1531ZM10.1082 19.1671L9.18909 18.7731L9.11951 18.9354L9.10975 19.1118L10.1082 19.1671ZM10.0742 19.7811L9.07575 19.7258L9.07268 19.7812L9.07576 19.8365L10.0742 19.7811ZM10.0912 19.8051L9.7401 20.7414L9.97489 20.8294L10.2234 20.7963L10.0912 19.8051ZM10.1062 19.8031L10.2384 20.7943L10.3886 20.7742L10.5261 20.7106L10.1062 19.8031ZM10.3072 19.7101L10.7271 20.6176L10.8372 20.5667L10.9319 20.491L10.3072 19.7101ZM10.3172 19.7021L10.9419 20.483L11.1611 20.3076L11.257 20.0438L10.3172 19.7021ZM10.3212 19.6911L11.261 20.0328L11.3143 19.8863L11.3204 19.7306L10.3212 19.6911ZM10.3382 19.2611L11.3374 19.3006L11.3431 19.1574L11.3084 19.0185L10.3382 19.2611ZM10.3352 19.2491L11.3054 19.0065L11.2382 18.7378L11.0423 18.542L10.3352 19.2491ZM10.3252 19.2391L11.0323 18.532L10.9176 18.4172L10.7724 18.3446L10.3252 19.2391ZM10.5912 19.2581L10.4123 18.2742L10.4013 18.2762L10.5802 19.2601L10.7592 20.2439L10.7702 20.2419L10.5912 19.2581ZM10.5802 19.2601L10.1381 18.3631L10.0671 18.3981L10.5092 19.2951L10.9514 20.192L11.0224 20.157L10.5802 19.2601ZM10.5092 19.2951L10.3131 18.3145L10.2931 18.3185L10.4892 19.2991L10.6853 20.2796L10.7053 20.2756L10.5092 19.2951ZM10.4892 19.2991L10.7639 18.3375L10.7499 18.3335L10.4752 19.2951L10.2005 20.2566L10.2145 20.2606L10.4892 19.2991ZM10.4752 19.2951L10.9174 18.3981L10.8464 18.3631L10.4042 19.2601L9.96207 20.157L10.0331 20.192L10.4752 19.2951ZM10.4042 19.2601L10.7025 18.3056C10.5917 18.271 10.4072 18.2338 10.1863 18.2798C9.94386 18.3303 9.74026 18.4642 9.59935 18.6404L10.3802 19.2651L11.1611 19.8898C11.0255 20.0592 10.8286 20.189 10.5941 20.2378C10.3812 20.2821 10.2061 20.2458 10.1059 20.2145L10.4042 19.2601ZM10.3802 19.2651L9.45173 18.8937L9.44773 18.9037L10.3762 19.2751L11.3047 19.6464L11.3087 19.6364L10.3802 19.2651ZM10.3762 19.2751L9.37701 19.2354L9.36001 19.6634L10.3592 19.7031L11.3584 19.7427L11.3754 19.3147L10.3762 19.2751ZM10.3592 19.7031L9.38908 19.9456L9.39408 19.9656L10.3642 19.7231L11.3344 19.4805L11.3294 19.4605L10.3592 19.7031ZM10.3642 19.7231L9.57159 20.3328L9.58159 20.3458L10.3742 19.7361L11.1668 19.1264L11.1568 19.1134L10.3642 19.7231ZM10.3742 19.7361L9.79446 20.5509L9.89846 20.6249L10.4782 19.8101L11.058 18.9953L10.954 18.9213L10.3742 19.7361ZM10.4782 19.8101L10.2206 20.7763L10.2356 20.7803L10.4932 19.8141L10.7509 18.8478L10.7359 18.8438L10.4782 19.8101ZM10.4932 19.8141L10.8094 20.7628L10.8214 20.7588L10.5052 19.8101L10.189 18.8614L10.177 18.8654L10.4932 19.8141ZM10.5052 19.8101L11.085 20.6249L11.189 20.5509L10.6092 19.7361L10.0295 18.9213L9.92547 18.9953L10.5052 19.8101ZM10.6092 19.7361L11.4092 20.336L11.4212 20.32L10.6212 19.7201L9.82121 19.1201L9.80921 19.1361L10.6092 19.7361ZM10.6212 19.7201L11.5946 19.9491L11.5986 19.9321L10.6252 19.7031L9.6518 19.474L9.6478 19.491L10.6212 19.7201ZM10.6252 19.7031L11.6244 19.6633L11.6074 19.2363L10.6082 19.2761L9.60901 19.3158L9.62601 19.7428L10.6252 19.7031ZM10.6082 19.2761L11.5784 19.0335C11.5488 18.9151 11.4824 18.7393 11.329 18.577C11.1635 18.4017 10.9528 18.3019 10.7433 18.2697L10.5912 19.2581L10.4392 20.2464C10.2383 20.2155 10.0348 20.1194 9.87494 19.9502C9.72724 19.7938 9.66501 19.6263 9.63808 19.5186L10.6082 19.2761ZM10.8562 19.1451L10.7042 18.1567L10.6912 18.1587L10.8432 19.1471L10.9952 20.1354L11.0082 20.1334L10.8562 19.1451ZM10.8432 19.1471L10.3941 18.2536L10.2091 18.3466L10.6582 19.2401L11.1074 20.1335L11.2924 20.0405L10.8432 19.1471ZM10.6582 19.2401L9.95111 18.533L9.94111 18.543L10.6482 19.2501L11.3553 19.9572L11.3653 19.9472L10.6582 19.2401ZM10.6482 19.2501L9.68344 18.987L9.68044 18.998L10.6452 19.2611L11.61 19.5241L11.613 19.5131L10.6482 19.2501ZM10.6452 19.2611L9.64609 19.3029L9.66409 19.7329L10.6632 19.6911L11.6623 19.6492L11.6443 19.2192L10.6452 19.2611ZM10.6632 19.6911L9.74015 20.0757L9.74515 20.0877L10.6682 19.7031L11.5913 19.3184L11.5863 19.3064L10.6632 19.6911ZM10.6682 19.7031L10.0097 20.4557L10.0177 20.4627L10.6762 19.7101L11.3347 18.9575L11.3267 18.9505L10.6682 19.7031ZM10.6762 19.7101L10.2563 20.6176L10.4573 20.7106L10.8772 19.8031L11.2971 18.8955L11.0961 18.8025L10.6762 19.7101ZM10.8772 19.8031L10.6227 20.7701C10.7488 20.8033 10.9404 20.8281 11.1599 20.7676C11.3933 20.7032 11.5757 20.5648 11.6988 20.4048L10.9062 19.7951L10.1136 19.1854C10.23 19.034 10.4043 18.9013 10.6281 18.8396C10.8378 18.7817 11.0183 18.8061 11.1317 18.836L10.8772 19.8031ZM10.9062 19.7951L11.8677 20.0698L11.8717 20.0558L10.9102 19.7811L9.94869 19.5064L9.94469 19.5204L10.9062 19.7951ZM10.9102 19.7811L11.9087 19.7258L11.8747 19.1118L10.8762 19.1671L9.87775 19.2223L9.91175 19.8363L10.9102 19.7811ZM10.8762 19.1671L11.8397 18.8994C11.7642 18.6275 11.5409 18.2927 11.1139 18.1788L10.8562 19.1451L10.5986 20.1113C10.4266 20.0654 10.2606 19.9702 10.1288 19.8253C10.0035 19.6874 9.9424 19.5416 9.9127 19.4347L10.8762 19.1671ZM10.1412 19.1471L10.6595 18.2919C10.4346 18.1556 10.166 18.1115 9.90958 18.1685L10.1265 19.1446L10.3434 20.1208C10.0971 20.1756 9.83898 20.1332 9.62293 20.0023L10.1412 19.1471ZM10.1265 19.1446L9.90958 18.1685C9.65312 18.2254 9.42845 18.3792 9.28251 18.5979L10.1142 19.1531L10.9459 19.7083C10.8057 19.9183 10.5898 20.0661 10.3434 20.1208L10.1265 19.1446ZM10.1142 19.1531L9.19509 18.7591L9.18909 18.7731L10.1082 19.1671L11.0274 19.561L11.0334 19.547L10.1142 19.1531ZM10.1082 19.1671L9.10975 19.1118L9.07575 19.7258L10.0742 19.7811L11.0727 19.8363L11.1067 19.2223L10.1082 19.1671ZM10.0742 19.7811L9.07576 19.8365C9.08417 19.9879 9.12911 20.1851 9.26295 20.3741C9.39926 20.5665 9.5786 20.6808 9.7401 20.7414L10.0912 19.8051L10.4423 18.8687C10.5932 18.9253 10.7643 19.0336 10.895 19.218C11.0232 19.399 11.0649 19.5862 11.0727 19.7256L10.0742 19.7811ZM10.0912 19.8051L10.2234 20.7963L10.2384 20.7943L10.1062 19.8031L9.974 18.8118L9.959 18.8138L10.0912 19.8051ZM10.1062 19.8031L10.5261 20.7106L10.7271 20.6176L10.3072 19.7101L9.8873 18.8025L9.6863 18.8955L10.1062 19.8031ZM10.3072 19.7101L10.9319 20.491L10.9419 20.483L10.3172 19.7021L9.69256 18.9212L9.68256 18.9292L10.3072 19.7101ZM10.3172 19.7021L11.257 20.0438L11.261 20.0328L10.3212 19.6911L9.38142 19.3493L9.37742 19.3603L10.3172 19.7021ZM10.3212 19.6911L11.3204 19.7306L11.3374 19.3006L10.3382 19.2611L9.339 19.2216L9.322 19.6516L10.3212 19.6911ZM10.3382 19.2611L11.3084 19.0185L11.3054 19.0065L10.3352 19.2491L9.36509 19.4916L9.36809 19.5036L10.3382 19.2611ZM10.3352 19.2491L11.0423 18.542L11.0323 18.532L10.3252 19.2391L9.61811 19.9462L9.62811 19.9562L10.3352 19.2491ZM10.3252 19.2391L10.7724 18.3446L10.5884 18.2526L10.1412 19.1471L9.694 20.0415L9.878 20.1335L10.3252 19.2391Z" fill="url(#paint0_linear_1303_15192)" mask="url(#path-1-inside-1_1303_15192)"/>
<path d="M16 6C16.7698 5.99996 17.5233 6.22207 18.1701 6.63967C18.8168 7.05728 19.3293 7.65264 19.646 8.3543C19.9627 9.05596 20.0702 9.83412 19.9557 10.5954C19.8411 11.3566 19.5092 12.0687 19 12.646V16.838C19 17.0255 18.9521 17.2099 18.8608 17.3737C18.7695 17.5375 18.6379 17.6753 18.4783 17.7739C18.3188 17.8724 18.1368 17.9286 17.9494 17.9371C17.7621 17.9455 17.5757 17.9059 17.408 17.822L16 17.118L14.592 17.822C14.4243 17.9059 14.2379 17.9455 14.0506 17.9371C13.8632 17.9286 13.6812 17.8724 13.5217 17.7739C13.3621 17.6753 13.2305 17.5375 13.1392 17.3737C13.0479 17.2099 13 17.0255 13 16.838V12.646C12.4908 12.0687 12.1589 11.3566 12.0443 10.5954C11.9298 9.83412 12.0373 9.05596 12.354 8.3543C12.6707 7.65264 13.1832 7.05728 13.8299 6.63967C14.4767 6.22207 15.2302 5.99996 16 6ZM18 0C18.5304 0 19.0391 0.210714 19.4142 0.585786C19.7893 0.960859 20 1.46957 20 2V4C20 4.26522 19.8946 4.51957 19.7071 4.70711C19.5196 4.89464 19.2652 5 19 5C18.7348 5 18.4804 4.89464 18.2929 4.70711C18.1054 4.51957 18 4.26522 18 4V2H2V14H10C10.2652 14 10.5196 14.1054 10.7071 14.2929C10.8946 14.4804 11 14.7348 11 15C11 15.2652 10.8946 15.5196 10.7071 15.7071C10.5196 15.8946 10.2652 16 10 16H2C1.46957 16 0.960859 15.7893 0.585786 15.4142C0.210714 15.0391 0 14.5304 0 14V2C0 1.46957 0.210714 0.960859 0.585786 0.585786C0.960859 0.210714 1.46957 0 2 0H18ZM17 13.874C16.3441 14.0434 15.6559 14.0434 15 13.874V15.382L15.553 15.106C15.6918 15.0366 15.8448 15.0005 16 15.0005C16.1552 15.0005 16.3082 15.0366 16.447 15.106L17 15.382V13.874ZM16 8C15.4696 8 14.9609 8.21071 14.5858 8.58579C14.2107 8.96086 14 9.46957 14 10C14 10.5304 14.2107 11.0391 14.5858 11.4142C14.9609 11.7893 15.4696 12 16 12C16.5304 12 17.0391 11.7893 17.4142 11.4142C17.7893 11.0391 18 10.5304 18 10C18 9.46957 17.7893 8.96086 17.4142 8.58579C17.0391 8.21071 16.5304 8 16 8ZM7 9C7.25488 9.00028 7.50003 9.09788 7.68537 9.27285C7.8707 9.44782 7.98224 9.68695 7.99717 9.94139C8.01211 10.1958 7.92933 10.4464 7.76574 10.6418C7.60215 10.8373 7.3701 10.9629 7.117 10.993L7 11H5C4.74512 10.9997 4.49997 10.9021 4.31463 10.7272C4.1293 10.5522 4.01777 10.313 4.00283 10.0586C3.98789 9.80416 4.07067 9.55362 4.23426 9.35817C4.39786 9.16271 4.6299 9.0371 4.883 9.007L5 9H7ZM11 5C11.2652 5 11.5196 5.10536 11.7071 5.29289C11.8946 5.48043 12 5.73478 12 6C12 6.26522 11.8946 6.51957 11.7071 6.70711C11.5196 6.89464 11.2652 7 11 7H5C4.73478 7 4.48043 6.89464 4.29289 6.70711C4.10536 6.51957 4 6.26522 4 6C4 5.73478 4.10536 5.48043 4.29289 5.29289C4.48043 5.10536 4.73478 5 5 5H11Z" fill="url(#paint1_linear_1303_15192)"/>
<defs>
<linearGradient id="paint0_linear_1303_15192" x1="10.3881" y1="19.8141" x2="10.3881" y2="19.1442" gradientUnits="userSpaceOnUse">
<stop stop-color="#F69000"/>
<stop offset="1" stop-color="#F8BA0C"/>
</linearGradient>
<linearGradient id="paint1_linear_1303_15192" x1="7.50991" y1="17.9382" x2="7.50991" y2="1.50524e-07" gradientUnits="userSpaceOnUse">
<stop stop-color="#F69000"/>
<stop offset="1" stop-color="#F8BA0C"/>
</linearGradient>
</defs>
</svg>
