<svg width="24" height="24" viewBox="0 0 24 24" fill="none" xmlns="http://www.w3.org/2000/svg">
<path d="M12 19C12.437 19 13.479 17.813 14.411 15.688C15.357 13.534 16 10.874 16 9.353C16 6.924 14.183 5 12 5C9.817 5 8 6.924 8 9.353C8 10.873 8.643 13.534 9.589 15.688C10.52 17.813 11.563 19 12 19ZM12 21C8.686 21 6 12.862 6 9.353C6 5.844 8.686 3 12 3C15.314 3 18 5.844 18 9.353C18 12.862 15.314 21 12 21ZM12 11C12.5304 11 13.0391 10.7893 13.4142 10.4142C13.7893 10.0391 14 9.53043 14 9C14 8.46957 13.7893 7.96086 13.4142 7.58579C13.0391 7.21071 12.5304 7 12 7C11.4696 7 10.9609 7.21071 10.5858 7.58579C10.2107 7.96086 10 8.46957 10 9C10 9.53043 10.2107 10.0391 10.5858 10.4142C10.9609 10.7893 11.4696 11 12 11Z" fill="url(#paint0_linear_1475_47963)"/>
<defs>
<linearGradient id="paint0_linear_1475_47963" x1="10.5059" y1="21" x2="10.5059" y2="3" gradientUnits="userSpaceOnUse">
<stop stop-color="#F69000"/>
<stop offset="1" stop-color="#F8BA0C"/>
</linearGradient>
</defs>
</svg>
