<svg width="23" height="22" viewBox="0 0 23 22" fill="none" xmlns="http://www.w3.org/2000/svg">
<path d="M10.1859 2.83434C10.3069 2.58882 10.4943 2.38209 10.7268 2.23753C10.9592 2.09297 11.2275 2.01636 11.5013 2.01636C11.775 2.01636 12.0433 2.09297 12.2758 2.23753C12.5082 2.38209 12.6956 2.58882 12.8167 2.83434L14.8554 6.96301L19.413 7.62484C19.684 7.66418 19.9385 7.77858 20.1478 7.95507C20.3571 8.13157 20.5128 8.36313 20.5973 8.62354C20.6818 8.88394 20.6918 9.16281 20.626 9.42858C20.5602 9.69434 20.4214 9.93639 20.2252 10.1273L16.927 13.3412L17.7062 17.8805C17.7525 18.1501 17.7225 18.4274 17.6196 18.6809C17.5166 18.9343 17.3448 19.154 17.1236 19.3149C16.9024 19.4759 16.6405 19.5718 16.3677 19.5917C16.0948 19.6117 15.8218 19.5549 15.5795 19.4278L11.5004 17.2828L7.42303 19.4278C7.18074 19.5549 6.90773 19.6117 6.63487 19.5917C6.36201 19.5718 6.10017 19.4759 5.87894 19.3149C5.65771 19.154 5.48591 18.9343 5.38296 18.6809C5.28001 18.4274 5.25001 18.1501 5.29636 17.8805L6.07369 13.3412L2.77553 10.1273C2.57929 9.93627 2.44048 9.69407 2.37481 9.42817C2.30914 9.16227 2.31924 8.8833 2.40396 8.62284C2.48868 8.36239 2.64464 8.13086 2.85417 7.95447C3.0637 7.77809 3.31844 7.6639 3.58953 7.62484L8.14719 6.96484L10.1859 2.83434Z" fill="url(#paint0_linear_983_615)"/>
<defs>
<linearGradient id="paint0_linear_983_615" x1="10.5433" y1="7.8238" x2="14.8803" y2="19.2379" gradientUnits="userSpaceOnUse">
<stop stop-color="#FFDE22"/>
<stop offset="1" stop-color="#F4A700"/>
</linearGradient>
</defs>
</svg>
