<svg width="24" height="24" viewBox="0 0 24 24" fill="none" xmlns="http://www.w3.org/2000/svg">
<path d="M5 3.5H19C19.8339 3.5 20.5 4.16614 20.5 5V19C20.5 19.8339 19.8339 20.5 19 20.5H5C4.16614 20.5 3.5 19.8339 3.5 19V5C3.5 4.16614 4.16614 3.5 5 3.5ZM4.5 19.5H19.5V4.5H4.5V19.5ZM13.5 15.5V16.5H7.5V15.5H13.5ZM16.5 11.5V12.5H7.5V11.5H16.5ZM16.5 7.5V8.5H7.5V7.5H16.5Z" fill="url(#paint0_linear_633_13413)" stroke="url(#paint1_linear_633_13413)"/>
<defs>
<linearGradient id="paint0_linear_633_13413" x1="9.75885" y1="21" x2="9.75885" y2="3" gradientUnits="userSpaceOnUse">
<stop stop-color="#F69000"/>
<stop offset="1" stop-color="#F8BA0C"/>
</linearGradient>
<linearGradient id="paint1_linear_633_13413" x1="9.75885" y1="21" x2="9.75885" y2="3" gradientUnits="userSpaceOnUse">
<stop stop-color="#F69000"/>
<stop offset="1" stop-color="#F8BA0C"/>
</linearGradient>
</defs>
</svg>
