<svg width="12" height="15" viewBox="0 0 12 15" fill="none" xmlns="http://www.w3.org/2000/svg">
<path d="M2.66797 7.49992C2.66797 7.13173 2.96645 6.83325 3.33464 6.83325C3.70283 6.83325 4.0013 7.13173 4.0013 7.49992C4.0013 7.86811 3.70283 8.16659 3.33464 8.16659C2.96645 8.16659 2.66797 7.86811 2.66797 7.49992ZM2.66797 10.1666C2.66797 9.79839 2.96645 9.49992 3.33464 9.49992C3.70283 9.49992 4.0013 9.79839 4.0013 10.1666C4.0013 10.5348 3.70283 10.8333 3.33464 10.8333C2.96645 10.8333 2.66797 10.5348 2.66797 10.1666ZM5.33464 7.49992C5.33464 7.13173 5.63311 6.83325 6.0013 6.83325C6.36949 6.83325 6.66797 7.13173 6.66797 7.49992C6.66797 7.86811 6.36949 8.16659 6.0013 8.16659C5.63311 8.16659 5.33464 7.86811 5.33464 7.49992ZM5.33464 10.1666C5.33464 9.79839 5.63311 9.49992 6.0013 9.49992C6.36949 9.49992 6.66797 9.79839 6.66797 10.1666C6.66797 10.5348 6.36949 10.8333 6.0013 10.8333C5.63311 10.8333 5.33464 10.5348 5.33464 10.1666ZM8.0013 7.49992C8.0013 7.13173 8.29978 6.83325 8.66797 6.83325C9.03616 6.83325 9.33463 7.13173 9.33463 7.49992C9.33463 7.86811 9.03616 8.16659 8.66797 8.16659C8.29978 8.16659 8.0013 7.86811 8.0013 7.49992ZM8.0013 10.1666C8.0013 9.79839 8.29978 9.49992 8.66797 9.49992C9.03616 9.49992 9.33463 9.79839 9.33463 10.1666C9.33463 10.5348 9.03616 10.8333 8.66797 10.8333C8.29978 10.8333 8.0013 10.5348 8.0013 10.1666Z" fill="black"/>
<path d="M1.33333 14.1666H10.6667C11.402 14.1666 12 13.5686 12 12.8333V3.49992C12 2.76459 11.402 2.16659 10.6667 2.16659H10C9.63181 2.16659 9.33333 1.86811 9.33333 1.49992C9.33333 1.13173 9.03486 0.833252 8.66667 0.833252C8.29848 0.833252 8 1.13173 8 1.49992C8 1.86811 7.70152 2.16659 7.33333 2.16659H4.66667C4.29848 2.16659 4 1.86811 4 1.49992C4 1.13173 3.70152 0.833252 3.33333 0.833252C2.96514 0.833252 2.66667 1.13173 2.66667 1.49992C2.66667 1.86811 2.36819 2.16659 2 2.16659H1.33333C0.598 2.16659 0 2.76459 0 3.49992V12.8333C0 13.5686 0.598 14.1666 1.33333 14.1666ZM9.66675 4.83325C10.219 4.83325 10.6667 5.28092 10.6667 5.83317L10.6672 11.8332C10.6673 12.3855 10.2196 12.8333 9.66725 12.8333H2.33333C1.78105 12.8333 1.33333 12.3855 1.33333 11.8333V5.83325C1.33333 5.28097 1.78105 4.83325 2.33333 4.83325H9.66675Z" fill="black"/>
</svg>
