<svg width="20" height="20" viewBox="0 0 20 20" fill="none" xmlns="http://www.w3.org/2000/svg">
<path fill-rule="evenodd" clip-rule="evenodd" d="M17.4587 4.14143C17.6865 4.36936 17.8145 4.67847 17.8145 5.00076C17.8145 5.32306 17.6865 5.63216 17.4587 5.8601L8.34836 14.9704C8.22797 15.0908 8.08503 15.1863 7.92771 15.2515C7.7704 15.3167 7.60178 15.3502 7.4315 15.3502C7.26122 15.3502 7.0926 15.3167 6.93528 15.2515C6.77797 15.1863 6.63503 15.0908 6.51463 14.9704L1.98825 10.4448C1.87216 10.3327 1.77957 10.1986 1.71587 10.0503C1.65217 9.90199 1.61864 9.7425 1.61723 9.58111C1.61583 9.41972 1.64658 9.25967 1.7077 9.1103C1.76881 8.96092 1.85907 8.82521 1.97319 8.71109C2.08731 8.59697 2.22302 8.50671 2.3724 8.4456C2.52177 8.38449 2.68182 8.35373 2.84321 8.35513C3.0046 8.35654 3.16409 8.39007 3.31238 8.45377C3.46067 8.51747 3.59479 8.61007 3.70692 8.72615L7.43109 12.4503L15.7392 4.14143C15.8521 4.02848 15.9861 3.93888 16.1336 3.87775C16.2811 3.81662 16.4392 3.78516 16.5989 3.78516C16.7586 3.78516 16.9167 3.81662 17.0642 3.87775C17.2118 3.93888 17.3458 4.02848 17.4587 4.14143Z" fill="url(#paint0_linear_1475_44272)"/>
<defs>
<linearGradient id="paint0_linear_1475_44272" x1="8.87039" y1="7.60576" x2="11.1219" y2="15.5618" gradientUnits="userSpaceOnUse">
<stop stop-color="#FFDE22"/>
<stop offset="1" stop-color="#F4A700"/>
</linearGradient>
</defs>
</svg>
