<svg width="24" height="24" viewBox="0 0 24 24" fill="none" xmlns="http://www.w3.org/2000/svg">
<path d="M19 12L15 8M19 12L15 16M19 12H9M14 21C12.8181 21 11.6478 20.7672 10.5558 20.3149C9.46392 19.8626 8.47177 19.1997 7.63604 18.364C6.80031 17.5282 6.13738 16.5361 5.68508 15.4442C5.23279 14.3522 5 13.1819 5 12C5 10.8181 5.23279 9.64778 5.68508 8.55585C6.13738 7.46392 6.80031 6.47177 7.63604 5.63604C8.47177 4.80031 9.46392 4.13738 10.5558 3.68508C11.6478 3.23279 12.8181 3 14 3" stroke="#FF2424" stroke-width="2" stroke-linecap="round" stroke-linejoin="round"/>
</svg>
