<svg width="14" height="14" viewBox="0 0 14 14" fill="none" xmlns="http://www.w3.org/2000/svg">
<path d="M6.66667 0C8.52467 0 10.1753 0.838 11.3507 1.87533C11.9407 2.396 12.4267 2.98067 12.7693 3.56267C13.106 4.134 13.3333 4.75333 13.3333 5.33333C13.3333 5.91333 13.1067 6.53267 12.7693 7.104C12.4267 7.686 11.9407 8.27067 11.3507 8.79133C10.1753 9.82867 8.524 10.6667 6.66667 10.6667C4.80867 10.6667 3.158 9.82867 1.98267 8.79133C1.39267 8.27067 0.906667 7.686 0.564 7.104C0.226667 6.53267 0 5.91333 0 5.33333C0 4.75333 0.226667 4.134 0.564 3.56267C0.906667 2.98067 1.39267 2.396 1.98267 1.87533C3.158 0.838 4.80933 0 6.66667 0ZM6.66667 1.33333C5.21067 1.33333 3.86133 1.99533 2.86533 2.87467C2.36933 3.312 1.97733 3.79 1.71267 4.23933C1.442 4.69933 1.33333 5.08 1.33333 5.33333C1.33333 5.58667 1.442 5.96733 1.71267 6.42733C1.97733 6.87667 2.36933 7.354 2.86533 7.792C3.86133 8.67133 5.21067 9.33333 6.66667 9.33333C8.12267 9.33333 9.472 8.67133 10.468 7.792C10.964 7.354 11.356 6.87667 11.6207 6.42733C11.8913 5.96733 12 5.58667 12 5.33333C12 5.08 11.8913 4.69933 11.6207 4.23933C11.356 3.79 10.964 3.31267 10.468 2.87467C9.472 1.99533 8.12267 1.33333 6.66667 1.33333ZM6.66667 3.33333C6.72533 3.33333 6.78333 3.33578 6.84067 3.34067C6.69592 3.59457 6.63862 3.889 6.67756 4.17865C6.7165 4.46831 6.84953 4.73715 7.05619 4.94381C7.26285 5.15047 7.53169 5.2835 7.82135 5.32244C8.111 5.36138 8.40543 5.30408 8.65933 5.15933C8.69439 5.56078 8.60736 5.96345 8.40965 6.31459C8.21194 6.66573 7.91277 6.94896 7.55134 7.12715C7.18991 7.30535 6.78308 7.37022 6.38415 7.31324C5.98522 7.25627 5.61281 7.08012 5.31571 6.80787C5.01861 6.53562 4.81068 6.17997 4.71917 5.78752C4.62766 5.39508 4.65683 4.98414 4.80286 4.60856C4.94889 4.23298 5.20498 3.91027 5.53755 3.68272C5.87013 3.45516 6.26369 3.33338 6.66667 3.33333Z" fill="url(#paint0_linear_1586_11438)"/>
<defs>
<linearGradient id="paint0_linear_1586_11438" x1="5.00655" y1="10.6667" x2="5.00655" y2="8.95069e-08" gradientUnits="userSpaceOnUse">
<stop stop-color="#F69000"/>
<stop offset="1" stop-color="#F8BA0C"/>
</linearGradient>
</defs>
</svg>
