<svg width="14" height="14" viewBox="0 0 14 14" fill="none" xmlns="http://www.w3.org/2000/svg">
<path d="M10.2131 7.3422C10.0238 8.91887 8.99109 9.54887 8.54509 10.0062C8.09842 10.4649 8.17842 10.5562 8.20842 11.2289C8.21343 11.3121 8.20134 11.3955 8.1729 11.4738C8.14446 11.5522 8.10027 11.6239 8.04306 11.6846C7.98585 11.7452 7.91682 11.7935 7.84024 11.8265C7.76365 11.8594 7.68113 11.8764 7.59776 11.8762H5.82576C5.74244 11.8761 5.66002 11.8589 5.58354 11.8259C5.50705 11.7928 5.43811 11.7446 5.3809 11.684C5.32369 11.6234 5.27943 11.5518 5.25081 11.4736C5.22218 11.3953 5.2098 11.3121 5.21442 11.2289C5.21442 10.5689 5.27576 10.4155 4.87842 10.0062C4.37176 9.49954 3.17976 8.7842 3.17976 6.81687C3.17671 6.3282 3.27494 5.8442 3.46823 5.39538C3.66153 4.94656 3.94571 4.54264 4.30285 4.2091C4.66 3.87556 5.08237 3.61962 5.54335 3.45742C6.00432 3.29521 6.49389 3.23027 6.98121 3.26666C7.46853 3.30306 7.94303 3.44002 8.37479 3.6689C8.80655 3.89779 9.18621 4.21363 9.48985 4.59653C9.79349 4.97943 10.0145 5.42107 10.139 5.89363C10.2635 6.36619 10.2887 6.85941 10.2131 7.3422Z" stroke="url(#paint0_linear_1586_11430)" stroke-width="1.2" stroke-linecap="round" stroke-linejoin="round"/>
<path d="M5.6849 11.8394V12.8474C5.6849 13.1228 5.83823 13.3488 6.0269 13.3488H7.39556C7.58556 13.3488 7.73823 13.1221 7.73823 12.8474V11.8394M6.19156 4.81276C5.79792 4.81294 5.42046 4.96944 5.14218 5.24785C4.86389 5.52626 4.70756 5.90379 4.70756 6.29743M11.5996 6.95143H12.8222M10.3689 2.94343L11.2362 2.0761M11.0356 10.3488L11.9029 11.2154M6.71156 0.600098V1.58876M2.2049 2.07543L3.06623 2.94343M1.53823 11.2154L2.39956 10.3488M1.82356 6.95143H0.601562" stroke="url(#paint1_linear_1586_11430)" stroke-width="1.2" stroke-linecap="round" stroke-linejoin="round"/>
<defs>
<linearGradient id="paint0_linear_1586_11430" x1="5.83667" y1="11.8762" x2="5.83667" y2="3.25684" gradientUnits="userSpaceOnUse">
<stop stop-color="#F69000"/>
<stop offset="1" stop-color="#F8BA0C"/>
</linearGradient>
<linearGradient id="paint1_linear_1586_11430" x1="5.19032" y1="13.3488" x2="5.19032" y2="0.600098" gradientUnits="userSpaceOnUse">
<stop stop-color="#F69000"/>
<stop offset="1" stop-color="#F8BA0C"/>
</linearGradient>
</defs>
</svg>
